<svg width="12" height="12" viewBox="0 0 12 12" fill="none" xmlns="http://www.w3.org/2000/svg">
<path d="M6.27719 0.12766C6.10661 -0.0425532 5.83369 -0.0425532 5.69723 0.12766L5.45842 0.365957C5.28785 0.53617 5.28785 0.774468 5.45842 0.944681L9.92751 5.40426H0.409382C0.170576 5.40426 0 5.60851 0 5.81277V6.15319C0 6.39149 0.170576 6.5617 0.409382 6.5617H9.92751L5.42431 11.0553C5.28785 11.2255 5.28785 11.4638 5.42431 11.634L5.69723 11.8723C5.83369 12.0426 6.10661 12.0426 6.27719 11.8723L11.8721 6.28936C12.0426 6.11915 12.0426 5.88085 11.8721 5.71064L6.27719 0.12766Z" fill="#0A033C"/>
</svg>
